<svg width="174" height="30" viewBox="0 0 174 30" fill="none" xmlns="http://www.w3.org/2000/svg">
<path d="M15 0C6.7284 0 0 6.7284 0 15C0 23.2716 6.7284 30 15 30C23.2716 30 30 23.3025 30 15C30 6.69753 23.3025 0 15 0ZM15 22.8704C10.6482 22.8704 7.12963 19.3519 7.12963 15C7.12963 10.6481 10.6482 7.12963 15 7.12963C19.3519 7.12963 22.8704 10.6481 22.8704 15C22.8704 19.3519 19.3519 22.8704 15 22.8704Z" fill="url(#paint0_linear_785_539)"/>
<path d="M17.7161 5.24691C11.3272 5.24691 6.17284 10.4321 6.17284 16.7901C6.17284 23.179 11.358 28.3333 17.7161 28.3333C24.1049 28.3333 29.2593 23.1481 29.2593 16.7901C29.2593 10.4321 24.1049 5.24691 17.7161 5.24691ZM15 22.8704C10.6482 22.8704 7.12963 19.3519 7.12963 15C7.12963 10.6481 10.6482 7.12963 15 7.12963C19.3519 7.12963 22.8704 10.6481 22.8704 15C22.8704 19.3519 19.3519 22.8704 15 22.8704Z" fill="url(#paint1_linear_785_539)"/>
<path d="M38.0557 15.3395C38.0557 11.3889 41.1112 8.48766 45.247 8.48766C49.3828 8.48766 52.4384 11.3889 52.4384 15.3395C52.4384 19.2901 49.3828 22.1914 45.247 22.1914C41.1112 22.2222 38.0557 19.2901 38.0557 15.3395ZM49.9384 15.3395C49.9384 12.6235 47.9322 10.6482 45.247 10.6482C42.5618 10.6482 40.5557 12.6235 40.5557 15.3395C40.5557 18.0556 42.5618 20.0309 45.247 20.0309C47.9322 20.0309 49.9384 18.0864 49.9384 15.3395Z" fill="#151E47"/>
<path d="M60.2161 11.7284V13.9815C60.0001 13.9506 59.8458 13.9198 59.6606 13.9198C57.8396 13.9198 56.6976 15 56.6976 17.0679V22.0062H54.3211V11.821H56.5742V13.3333C57.284 12.2531 58.5495 11.7284 60.2161 11.7284Z" fill="#151E47"/>
<path d="M72.5618 16.9444C72.5618 20.0926 70.3705 22.1605 67.4075 22.1605C66.0186 22.1605 64.8458 21.6975 64.0433 20.7099V22.037H61.7902V7.87037H64.1668V13.0556C65.0001 12.1296 66.1421 11.6975 67.4384 11.6975C70.3705 11.7284 72.5618 13.7654 72.5618 16.9444ZM70.1544 16.9444C70.1544 15 68.8581 13.7654 67.1298 13.7654C65.4014 13.7654 64.1051 15 64.1051 16.9444C64.1051 18.8889 65.4322 20.1235 67.1298 20.1235C68.8581 20.1235 70.1544 18.8889 70.1544 16.9444Z" fill="#151E47"/>
<path d="M84.1977 11.8519V22.037H81.9446V20.7407C81.173 21.6667 79.9693 22.1605 78.673 22.1605C76.0495 22.1605 74.2902 20.7407 74.2902 17.6543V11.8519H76.6668V17.3457C76.6668 19.1975 77.531 20.0617 79.0433 20.0617C80.71 20.0617 81.8211 19.0432 81.8211 17.0062V11.8519H84.1977Z" fill="#151E47"/>
<path d="M85.71 21.0185L86.6359 19.1975C87.531 19.784 88.889 20.2161 90.1853 20.2161C91.6977 20.2161 92.3149 19.784 92.3149 19.1049C92.3149 17.1605 86.0186 18.9815 86.0186 14.9383C86.0186 13.0247 87.747 11.7593 90.494 11.7593C91.852 11.7593 93.3952 12.0679 94.2902 12.6235L93.3643 14.4445C92.4075 13.858 91.4199 13.6728 90.4631 13.6728C89.0125 13.6728 88.3335 14.1358 88.3335 14.8148C88.3335 16.8827 94.6298 15.0309 94.6298 19.0124C94.6298 20.9259 92.8705 22.1605 90.031 22.1605C88.3026 22.1605 86.6051 21.6667 85.71 21.0185Z" fill="#151E47"/>
<path d="M95.6174 20.3086L96.0495 19.5988C96.9754 20.5556 98.673 21.2654 100.463 21.2654C103.117 21.2654 104.321 20.0926 104.321 18.642C104.321 14.6296 95.9878 17.037 95.9878 12.1296C95.9878 10.2469 97.4384 8.58025 100.71 8.58025C102.191 8.58025 103.704 9.04322 104.722 9.78396L104.352 10.5556C103.241 9.78396 101.883 9.44445 100.71 9.44445C98.1174 9.44445 96.9446 10.6482 96.9446 12.0988C96.9446 16.1111 105.278 13.7346 105.278 18.5803C105.278 20.463 103.766 22.0988 100.463 22.0988C98.4878 22.0988 96.5742 21.358 95.6174 20.3086Z" fill="#151E47"/>
<path d="M106.698 17.037C106.698 14.0741 108.827 11.9753 111.667 11.9753C114.537 11.9753 116.636 14.0741 116.636 17.037C116.636 20 114.537 22.0988 111.667 22.0988C108.796 22.0988 106.698 20 106.698 17.037ZM115.648 17.037C115.648 14.537 113.92 12.8395 111.636 12.8395C109.352 12.8395 107.624 14.537 107.624 17.037C107.624 19.537 109.352 21.2346 111.636 21.2346C113.951 21.2346 115.648 19.537 115.648 17.037Z" fill="#151E47"/>
<path d="M120.216 10.6173V12.0679H123.395V12.9012H120.247V22.037H119.29V12.9012H117.469V12.0679H119.29V10.5556C119.29 8.88889 120.278 7.80865 122.037 7.80865C122.747 7.80865 123.519 8.0247 124.012 8.4568L123.642 9.16667C123.241 8.7963 122.685 8.61112 122.099 8.61112C120.864 8.64198 120.216 9.32099 120.216 10.6173Z" fill="#151E47"/>
<path d="M129.815 21.3889C129.321 21.8519 128.519 22.0988 127.778 22.0988C126.019 22.0988 125.062 21.0803 125.062 19.3827V12.9012H123.241V12.0679H125.062V9.90741H126.019V12.0679H129.167V12.9012H126.019V19.2901C126.019 20.5556 126.636 21.2654 127.87 21.2654C128.457 21.2654 129.012 21.0803 129.414 20.7099L129.815 21.3889Z" fill="#151E47"/>
<path d="M145.988 12.0679L142.222 22.0062H141.327L137.963 13.3642L134.599 22.0062H133.735L129.969 12.0679H130.895L134.198 20.9568L137.593 12.0679H138.426L141.79 20.9259L145.124 12.0679H145.988Z" fill="#151E47"/>
<path d="M154.599 15.7099V22.0062H153.673V20.2469C153.056 21.3889 151.821 22.0988 150.093 22.0988C147.87 22.0988 146.512 20.9568 146.512 19.2593C146.512 17.7469 147.469 16.4815 150.216 16.4815H153.611V15.679C153.611 13.8272 152.593 12.8395 150.648 12.8395C149.29 12.8395 148.025 13.3642 147.222 14.1049L146.759 13.4259C147.747 12.5617 149.198 12.0062 150.741 12.0062C153.241 12.0062 154.599 13.2716 154.599 15.7099ZM153.673 19.0741V17.2222H150.278C148.21 17.2222 147.5 18.0864 147.5 19.2284C147.5 20.5247 148.519 21.3272 150.247 21.3272C151.914 21.3272 153.087 20.5247 153.673 19.0741Z" fill="#151E47"/>
<path d="M162.778 12.0062V12.9321C162.716 12.9321 162.624 12.9012 162.562 12.9012C160.34 12.9012 159.043 14.3827 159.043 16.821V22.0062H158.087V12.0679H159.012V14.2284C159.568 12.8086 160.895 12.0062 162.778 12.0062Z" fill="#151E47"/>
<path d="M173.21 17.284H164.661C164.753 19.6605 166.482 21.2346 168.858 21.2346C170.124 21.2346 171.266 20.7716 172.037 19.8457L172.593 20.463C171.729 21.5432 170.34 22.0679 168.827 22.0679C165.833 22.0679 163.704 19.9691 163.704 17.0062C163.704 14.0432 165.741 11.9444 168.457 11.9444C171.173 11.9444 173.21 14.0123 173.21 16.9444C173.241 17.0988 173.21 17.1914 173.21 17.284ZM164.692 16.5432H172.315C172.192 14.3827 170.617 12.8395 168.519 12.8395C166.389 12.8395 164.846 14.3519 164.692 16.5432Z" fill="#151E47"/>
<defs>
<linearGradient id="paint0_linear_785_539" x1="26.3277" y1="24.8481" x2="3.68936" y2="5.16889" gradientUnits="userSpaceOnUse">
<stop offset="0.0703125" stop-color="#232A52"/>
<stop offset="0.24" stop-color="#2E4674"/>
<stop offset="0.4323" stop-color="#396A9F"/>
<stop offset="0.5791" stop-color="#4284BF"/>
<stop offset="0.6618" stop-color="#468ECC"/>
<stop offset="1" stop-color="#44AC5A"/>
</linearGradient>
<linearGradient id="paint1_linear_785_539" x1="25.8852" y1="24.9706" x2="9.55309" y2="8.63852" gradientUnits="userSpaceOnUse">
<stop stop-color="#D9B953"/>
<stop offset="0.6383" stop-color="#EB706F"/>
<stop offset="0.6593" stop-color="#E56968"/>
<stop offset="0.7346" stop-color="#D35554"/>
<stop offset="0.8138" stop-color="#C64746"/>
<stop offset="0.8988" stop-color="#BF403F"/>
<stop offset="1" stop-color="#BC3D3D"/>
</linearGradient>
</defs>
</svg>
