<?xml version="1.0" encoding="UTF-8"?> <svg xmlns="http://www.w3.org/2000/svg" width="142" height="32" viewBox="0 0 142 32" fill="none"><g clip-path="url(#clip0_5129_12235)"><path d="M14.0217 13.3034C9.84961 12.2252 6.01779 10.862 6.01779 6.06567H0.000244141C0.000244141 15.0633 5.87584 17.1916 11.7796 18.6968C15.9517 19.775 19.7835 20.7479 19.7835 25.9345H25.8011C25.8011 16.8586 19.8409 14.8086 14.0217 13.3034Z" fill="url(#paint0_linear_5129_12235)"></path><path d="M4.85388 31.9521H13.7095C17.0299 31.9521 19.7835 29.3979 19.7835 25.9346H4.85388V31.9521Z" fill="#011F3D"></path><path d="M20.9192 0.0480957H12.0917C8.77139 0.0480957 6.01782 2.60229 6.01782 6.06564H20.9192V0.0480957Z" fill="#011F3D"></path><path d="M37.6971 13.7208C35.5625 13.3941 34.7097 12.892 34.7097 12.1645C34.7097 11.437 35.6637 11.0601 36.6178 11.0601C37.647 11.0601 38.7524 11.6123 39.2795 12.6415L41.6395 11.1854C40.7106 9.37753 39.1041 8.39844 36.6178 8.39844C34.1314 8.39844 31.8476 9.95475 31.8476 12.2647C31.8476 14.4494 33.4039 15.679 36.0907 16.0809C38.124 16.4076 38.9778 16.8345 38.9778 17.6622C38.9778 18.3658 38.1741 18.8929 36.8683 18.8929C35.5625 18.8929 34.5584 18.014 34.1064 17.0098L31.4697 18.466C32.2234 20.374 34.2567 21.5546 36.7921 21.5546C39.6793 21.5546 41.889 20.0985 41.889 17.562C41.889 15.0256 40.2575 14.1227 37.696 13.7208H37.6971Z" fill="#011F3D"></path><path d="M49.655 8.39722C45.8138 8.39722 42.9767 11.1341 42.9767 14.9753C42.9767 18.8165 45.8138 21.5534 49.655 21.5534C53.4962 21.5534 56.3583 18.8165 56.3583 14.9753C56.3583 11.1341 53.5212 8.39722 49.655 8.39722ZM49.655 18.8426C47.4953 18.8426 45.939 17.2612 45.939 14.9763C45.939 12.6914 47.4953 11.1101 49.655 11.1101C51.8146 11.1101 53.396 12.6914 53.396 14.9763C53.396 17.2612 51.8146 18.8426 49.655 18.8426Z" fill="#011F3D"></path><path d="M124.006 8.39735C120.165 8.39735 117.528 11.1342 117.528 14.9754C117.528 18.8166 120.165 21.5535 124.006 21.5535C126.818 21.5535 128.4 20.5995 129.655 18.992L127.396 17.3094C126.642 18.2885 125.663 18.9408 124.006 18.9408C122.073 18.9408 120.742 17.6851 120.466 15.8021H130.333V14.7228C130.333 11.0069 127.771 8.39526 124.005 8.39526L124.006 8.39735ZM120.616 13.4191C121.118 11.9129 122.324 10.9088 124.005 10.9088C125.813 10.9088 126.993 12.0382 127.369 13.4191H120.615H120.616Z" fill="#011F3D"></path><path d="M133.949 8.69897L131.94 13.5694H133.07L133.497 12.465H135.455L135.882 13.5694H137.011L135.003 8.69897H133.949ZM133.848 11.5611L134.476 9.90353L135.103 11.5611H133.847H133.848Z" fill="#011F3D"></path><path d="M70.8295 4.98305H67.9674V8.699H62.0166V6.36401H65.481V3.67725H61.8903C60.1326 3.67725 59.1535 4.63129 59.1535 6.36401V8.699H56.5419V11.3858H59.1535V21.2529H62.0156V11.3858H67.9663V18.5411C67.9663 20.2988 68.9204 21.2529 70.7032 21.2529H74.344V18.5411H70.8285V11.3858H74.344V8.699H70.8285V4.98305H70.8295Z" fill="#011F3D"></path><path d="M139.346 11.0091V11.8128H140.903C140.727 12.3149 140.35 12.7167 139.622 12.7167C138.718 12.7167 138.116 12.0132 138.116 11.1354C138.116 10.2575 138.743 9.55399 139.597 9.55399C140.249 9.55399 140.626 9.85565 140.852 10.2064L141.681 9.65419C141.304 9.02687 140.577 8.625 139.597 8.625C138.191 8.625 137.136 9.7544 137.136 11.1354C137.136 12.5163 138.141 13.6457 139.597 13.6457C141.053 13.6457 141.957 12.6666 141.957 11.2857V11.0091H139.345H139.346Z" fill="#011F3D"></path><path d="M109.491 11.4108V21.2528H112.353V11.4108H117.098V8.69897H112.228C110.445 8.69897 109.491 9.65301 109.491 11.4108Z" fill="#011F3D"></path><path d="M88.7811 17.11L86.4211 8.69897H83.0569L80.6968 17.11L78.3869 8.69897H75.2732L79.0392 21.2528H82.1529L84.7395 12.1383L87.325 21.2528H90.4387L94.2047 8.69897H91.1161L88.7811 17.11Z" fill="#011F3D"></path><path d="M104.384 10.0798C103.681 9.07569 102.375 8.39722 100.618 8.39722C96.9769 8.39722 94.3663 11.109 94.3663 14.9753C94.3663 18.8416 96.9779 21.5534 100.618 21.5534C102.551 21.5534 103.681 20.7747 104.384 19.8206V21.2517H107.246V8.69783H104.384V10.0788V10.0798ZM100.918 18.8676C98.7848 18.8676 97.3026 17.3113 97.3026 14.9763C97.3026 12.6413 98.7837 11.085 100.918 11.085C103.053 11.085 104.534 12.6413 104.534 14.9763C104.534 17.3113 103.053 18.8676 100.918 18.8676Z" fill="#011F3D"></path><path d="M35.3109 31.8728L34.8433 30.6536H32.8799L32.4123 31.8728H31.7202L33.5511 27.2612H34.1638L36.0019 31.8728H35.3099H35.3109ZM33.0845 30.114H34.6387L33.8611 28.0911L33.0834 30.114H33.0845Z" fill="#011F3D"></path><path d="M39.2043 30.9239L39.7116 30.5742C39.9027 31.0095 40.2711 31.3717 40.9037 31.3717C41.4903 31.3717 41.8921 31.1013 41.8921 30.6013C41.8921 30.1013 41.556 29.8832 40.7001 29.712C39.8369 29.5346 39.3494 29.0795 39.3494 28.4146C39.3494 27.6567 40.0018 27.1829 40.8577 27.1829C41.6677 27.1829 42.1625 27.5513 42.4391 28.0659L41.9652 28.4219C41.721 27.9939 41.3264 27.7632 40.8588 27.7632C40.3912 27.7632 39.983 27.9741 39.983 28.402C39.983 28.7841 40.2732 29.0346 41.149 29.2193C42.0247 29.4103 42.532 29.7861 42.532 30.57C42.532 31.4134 41.8796 31.9531 40.8911 31.9531C40.0676 31.9531 39.4423 31.5376 39.2043 30.926V30.9239Z" fill="#011F3D"></path><path d="M43.6781 29.567C43.6781 28.0848 44.7188 27.1819 45.9776 27.1819C47.2364 27.1819 48.2771 28.0848 48.2771 29.567C48.2771 31.0492 47.2364 31.9521 45.9776 31.9521C44.7188 31.9521 43.6781 31.0492 43.6781 29.567ZM47.6237 29.567C47.6237 28.4532 46.8795 27.7821 45.9766 27.7821C45.0737 27.7821 44.3294 28.4543 44.3294 29.567C44.3294 30.6797 45.0737 31.3519 45.9766 31.3519C46.8795 31.3519 47.6237 30.6797 47.6237 29.567Z" fill="#011F3D"></path><path d="M49.6853 31.8728V27.7487C49.6853 27.4324 49.8565 27.2612 50.1728 27.2612H52.6695V27.8541H50.3377V29.4219H52.3272V29.995H50.3377V31.8728H49.6853Z" fill="#011F3D"></path><path d="M57.3008 27.8541H55.805V31.8728H55.1526V27.8541H53.6569V27.2612H57.2998V27.8541H57.3008Z" fill="#011F3D"></path><path d="M59.5274 31.8728L58.2498 27.2612H58.922L59.851 30.7924L60.9574 27.2612H61.5764L62.6828 30.7924L63.6118 27.2612H64.284L63.0064 31.8728H62.4198L61.2674 28.1704L60.115 31.8728H59.5284H59.5274Z" fill="#011F3D"></path><path d="M68.2765 31.8728L67.8089 30.6536H65.8455L65.3778 31.8728H64.6858L66.5166 27.2612H67.1293L68.9675 31.8728H68.2754H68.2765ZM66.049 30.114H67.6032L66.8256 28.0911L66.048 30.114H66.049Z" fill="#011F3D"></path><path d="M73.6782 31.8728H72.9799L72.2095 30.0806H70.9246V31.8728H70.2722V27.2612H72.0446C73.0394 27.2612 73.6187 27.7685 73.6187 28.6714C73.6187 29.3102 73.2961 29.7257 72.8285 29.9229L73.6782 31.8728ZM70.9246 29.4939H72.0644C72.6312 29.4939 72.9736 29.2236 72.9736 28.6704C72.9736 28.1172 72.6312 27.8531 72.0644 27.8531H70.9246V29.4939Z" fill="#011F3D"></path><path d="M75.1072 31.8728V27.2612H78.2887V27.8541H75.7596V29.2309H77.9463V29.7904H75.7596V31.2788H78.2887V31.8717H75.1072V31.8728Z" fill="#011F3D"></path><path d="M81.7739 29.567C81.7739 28.0848 82.8146 27.1819 84.0599 27.1819C84.8699 27.1819 85.5755 27.5378 86.0034 28.1902L85.4961 28.5785C85.1799 28.0712 84.6663 27.781 84.0599 27.781C83.1768 27.781 82.4263 28.4532 82.4263 29.5659C82.4263 30.6786 83.1778 31.3509 84.0599 31.3509C84.8375 31.3509 85.4565 30.8498 85.5421 30.0534H83.968V29.5127H86.2477V29.6902C86.2477 31.093 85.279 31.95 84.0609 31.95C82.8428 31.95 81.775 31.0471 81.775 29.5649L81.7739 29.567Z" fill="#011F3D"></path><path d="M92.3998 31.8728H91.7673V28.3812L90.3112 31.8728H89.7183L88.2622 28.3812V31.8728H87.6296V27.2612H88.4334L90.0147 31.0555L91.5961 27.2612H92.3998V31.8728Z" fill="#011F3D"></path><path d="M94.0605 31.8728V27.2612H95.8329C96.6962 27.2612 97.1961 27.7623 97.1961 28.4209C97.1961 28.9282 96.906 29.2706 96.5511 29.4219C97.025 29.5931 97.3611 29.9292 97.3611 30.5941C97.3611 31.3258 96.7943 31.8717 95.9446 31.8717H94.0605V31.8728ZM94.7119 29.1985H95.7724C96.2995 29.1985 96.5625 28.9345 96.5625 28.5138C96.5625 28.0931 96.2995 27.8291 95.7724 27.8291H94.7119V29.1996V29.1985ZM94.7119 31.2799H95.9175C96.4049 31.2799 96.7076 30.9834 96.7076 30.5158C96.7076 30.0482 96.4049 29.7455 95.9175 29.7455H94.7119V31.2809V31.2799Z" fill="#011F3D"></path><path d="M101.965 27.2612H102.618V31.8728H101.965V29.8175H99.5144V31.8728H98.8621V27.2612H99.5144V29.2246H101.965V27.2612Z" fill="#011F3D"></path><path d="M106.504 31.8728V27.2612H108.276C109.14 27.2612 109.64 27.7623 109.64 28.4209C109.64 28.9282 109.349 29.2706 108.994 29.4219C109.468 29.5931 109.804 29.9292 109.804 30.5941C109.804 31.3258 109.238 31.8717 108.388 31.8717H106.504V31.8728ZM107.156 29.1985H108.217C108.744 29.1985 109.007 28.9345 109.007 28.5138C109.007 28.0931 108.744 27.8291 108.217 27.8291H107.156V29.1996V29.1985ZM107.156 31.2799H108.362C108.849 31.2799 109.152 30.9834 109.152 30.5158C109.152 30.0482 108.849 29.7455 108.362 29.7455H107.156V31.2809V31.2799Z" fill="#011F3D"></path><path d="M114.712 31.8728H114.014L113.244 30.0806H111.959V31.8728H111.306V27.2612H113.079C114.074 27.2612 114.653 27.7685 114.653 28.6714C114.653 29.3102 114.33 29.7257 113.863 29.9229L114.712 31.8728ZM111.959 29.4939H113.099C113.665 29.4939 114.008 29.2236 114.008 28.6704C114.008 28.1172 113.665 27.8531 113.099 27.8531H111.959V29.4939Z" fill="#011F3D"></path><path d="M119.377 31.8728L118.909 30.6536H116.946L116.478 31.8728H115.786L117.617 27.2612H118.23L120.068 31.8728H119.376H119.377ZM117.15 30.114H118.704L117.926 28.0911L117.149 30.114H117.15Z" fill="#011F3D"></path><path d="M121.373 31.8728V27.2612H122.091L124.443 30.8384V27.2612H125.095V31.8728H124.377L122.025 28.2956V31.8728H121.373Z" fill="#011F3D"></path><path d="M126.755 31.8728V27.2612H128.185C129.489 27.2612 130.471 28.0848 130.471 29.567C130.471 31.0492 129.489 31.8728 128.185 31.8728H126.755ZM127.407 31.2799H128.185C129.14 31.2799 129.824 30.6734 129.824 29.567C129.824 28.4606 129.14 27.8541 128.185 27.8541H127.407V31.2799Z" fill="#011F3D"></path></g><defs><linearGradient id="paint0_linear_5129_12235" x1="-1.60304" y1="9.84321" x2="27.4044" y2="22.156" gradientUnits="userSpaceOnUse"><stop stop-color="#8E3CF7"></stop><stop offset="0.2" stop-color="#8E3CF7"></stop><stop offset="0.8" stop-color="#3CC1B6"></stop><stop offset="1" stop-color="#3CC1B6"></stop></linearGradient><clipPath id="clip0_5129_12235"><rect width="141.958" height="32" fill="white"></rect></clipPath></defs></svg> 